<?xml version="1.0" encoding="iso-8859-1"?>
<!-- Generator: Adobe Illustrator 19.0.0, SVG Export Plug-In . SVG Version: 6.00 Build 0)  -->
<svg version="1.1" id="Layer_1" xmlns="http://www.w3.org/2000/svg" xmlns:xlink="http://www.w3.org/1999/xlink" x="0px" y="0px"
	 viewBox="0 0 491.52 491.52" style="enable-background:new 0 0 491.52 491.52; fill: #f1eeee;" xml:space="preserve">
<g>
	<g>
		<g>
			<path d="M434.269,403.635c0.083-0.083,0.158-0.173,0.24-0.257c0.373-0.384,0.73-0.774,1.065-1.172
				c0.056-0.067,0.108-0.137,0.162-0.205c3.43-4.178,4.832-9.099,4.567-13.864V20.48c0-11.311-9.169-20.48-20.48-20.48H102.732
				C74.259,0,51.184,23.075,51.184,51.548v378.37c0,0.054-0.004,0.108-0.004,0.162c0,33.941,27.499,61.44,61.44,61.44h307.2
				c18.246,0,27.383-22.06,14.482-34.962C415.01,437.268,415,422.92,434.269,403.635z M399.344,368.64h-40.964V40.96h40.964V368.64z
				 M92.144,51.548c0-5.852,4.737-10.588,10.588-10.588h214.688v327.68H112.624h-0.004c-0.008,0-0.015,0.001-0.023,0.001
				c-0.978,0-1.949,0.028-2.916,0.074c-0.326,0.015-0.648,0.042-0.973,0.063c-0.65,0.041-1.298,0.087-1.942,0.148
				c-0.374,0.035-0.746,0.078-1.119,0.12c-0.594,0.067-1.185,0.141-1.773,0.225c-0.381,0.054-0.761,0.111-1.14,0.172
				c-0.587,0.095-1.171,0.201-1.752,0.313c-0.36,0.069-0.721,0.135-1.079,0.21c-0.655,0.138-1.303,0.292-1.95,0.45
				c-0.272,0.067-0.547,0.125-0.817,0.195c-0.895,0.232-1.783,0.484-2.662,0.756c-0.282,0.087-0.558,0.186-0.838,0.276
				c-0.499,0.162-1,0.318-1.493,0.492V51.548z M382.34,450.56h-269.72c-11.32,0-20.48-9.16-20.48-20.48h0.004
				c0-11.32,9.16-20.48,20.48-20.48H382.34C377.706,423.174,377.706,436.986,382.34,450.56z"/>
			<path d="M194.539,245.76h81.92c11.311,0,20.48-9.169,20.48-20.48s-9.169-20.48-20.48-20.48h-81.92
				c-11.311,0-20.48,9.169-20.48,20.48S183.229,245.76,194.539,245.76z"/>
			<path d="M153.579,327.68h122.88c11.311,0,20.48-9.169,20.48-20.48s-9.169-20.48-20.48-20.48h-122.88
				c-11.311,0-20.48,9.169-20.48,20.48S142.269,327.68,153.579,327.68z"/>
		</g>
	</g>
</g>
<g>
</g>
<g>
</g>
<g>
</g>
<g>
</g>
<g>
</g>
<g>
</g>
<g>
</g>
<g>
</g>
<g>
</g>
<g>
</g>
<g>
</g>
<g>
</g>
<g>
</g>
<g>
</g>
<g>
</g>
</svg>
