<?xml version="1.0" encoding="iso-8859-1"?>
<!-- Generator: Adobe Illustrator 19.0.0, SVG Export Plug-In . SVG Version: 6.00 Build 0)  -->
<svg version="1.1" id="Layer_1" xmlns="http://www.w3.org/2000/svg" xmlns:xlink="http://www.w3.org/1999/xlink" x="0px" y="0px"
	 viewBox="0 0 512 512" style="enable-background:new 0 0 512 512;" xml:space="preserve">
<circle style="fill:#797878;" cx="256" cy="256" r="256"/>
<path style="fill:#797878;" d="M511.94,250.909L405.014,143.436L257.152,259.879L119.239,404.256L225.123,510.14
	c75.385,9.107,154.041-15.265,211.897-73.119C488.301,385.738,513.267,318.112,511.94,250.909z"/>
<path style="fill:#fff;" d="M195.698,352.752l209.317-209.317l-24.381-24.381L171.317,328.371l-27.427-27.427
	c-4.93-4.929-12.343-6.403-18.787-3.737c-6.441,2.669-10.642,8.954-10.642,15.927v79.234c0,9.519,7.72,17.239,17.239,17.239h79.234
	c6.973,0,13.259-4.201,15.927-10.642c2.667-6.442,1.191-13.857-3.737-18.787L195.698,352.752z"/>
<path style="fill:#fff;" d="M393.399,131.82L120.111,405.106c3.063,2.788,7.12,4.503,11.588,4.503h79.234
	c6.973,0,13.259-4.201,15.927-10.642c2.667-6.442,1.191-13.857-3.737-18.787l-27.427-27.427l209.317-209.317L393.399,131.82z"/>
<g>
</g>
<g>
</g>
<g>
</g>
<g>
</g>
<g>
</g>
<g>
</g>
<g>
</g>
<g>
</g>
<g>
</g>
<g>
</g>
<g>
</g>
<g>
</g>
<g>
</g>
<g>
</g>
<g>
</g>
</svg>
