<?xml version="1.0" encoding="iso-8859-1"?>
<!-- Generator: Adobe Illustrator 19.0.0, SVG Export Plug-In . SVG Version: 6.00 Build 0)  -->
<svg version="1.1" id="Layer_1" xmlns="http://www.w3.org/2000/svg" xmlns:xlink="http://www.w3.org/1999/xlink" x="0px" y="0px"
	 viewBox="0 0 512 512" style="enable-background:new 0 0 512 512;" xml:space="preserve">
<path style="fill:#11544F;" d="M222.72,512c-59.437,0.001-115.351-23.179-157.443-65.27S0.004,348.723,0.007,289.287
	c0.003-58.492,22.507-113.746,63.368-155.586c40.789-41.765,95.352-65.575,153.635-67.042c0.123-0.003,0.382-0.006,0.505-0.006
	c10.935,0,19.831,8.886,19.831,19.809v188.202h188.2c5.303,0,10.469,2.177,14.174,5.977c3.712,3.805,5.764,9.037,5.633,14.355
	c-1.467,58.287-25.277,112.85-67.043,153.639C336.467,489.494,281.212,511.999,222.72,512z M208.084,96.388
	c-101.027,7.419-178.812,90.373-178.816,192.901c-0.001,51.62,20.134,100.187,56.7,136.753
	c36.564,36.564,85.131,56.701,136.753,56.7v14.63v-14.63c102.528-0.003,185.482-77.791,192.902-178.815H222.714
	c-8.079,0-14.63-6.551-14.63-14.63V96.388z"/>
<path style="fill:#6AB797;" d="M289.351,19.808v194.298c0,4.712,3.82,8.534,8.534,8.534h194.298c2.926,0,5.249-2.424,5.176-5.35
	C494.566,106.623,405.367,17.423,294.7,14.63C291.775,14.559,289.351,16.882,289.351,19.808z"/>
<g>
	<path style="fill:#11544F;" d="M492.183,237.272H297.885c-12.772,0-23.164-10.392-23.164-23.164v-194.3
		C274.721,8.885,283.623,0,294.565,0c0.123,0,0.383,0.003,0.508,0.006c118.639,2.995,213.919,98.275,216.914,216.917
		c0.133,5.33-1.921,10.569-5.637,14.377C502.593,235.152,497.561,237.272,492.183,237.272z M303.982,208.011h178.273
		c-7.096-95.321-82.95-171.168-178.273-178.273V208.011z"/>
	<path style="fill:#11544F;" d="M222.681,422.991c-8.079,0-14.63-6.551-14.63-14.63V243.933c0-8.079,6.551-14.63,14.63-14.63
		c8.079,0,14.63,6.551,14.63,14.63V408.36C237.311,416.441,230.761,422.991,222.681,422.991z"/>
</g>
<g>
</g>
<g>
</g>
<g>
</g>
<g>
</g>
<g>
</g>
<g>
</g>
<g>
</g>
<g>
</g>
<g>
</g>
<g>
</g>
<g>
</g>
<g>
</g>
<g>
</g>
<g>
</g>
<g>
</g>
</svg>
